<?xml version="1.0" encoding="utf-8"?>
<!-- Generator: Adobe Illustrator 27.1.1, SVG Export Plug-In . SVG Version: 6.00 Build 0)  -->
<svg version="1.1" xmlns="http://www.w3.org/2000/svg" xmlns:xlink="http://www.w3.org/1999/xlink" x="0px" y="0px"
	 viewBox="0 0 1835 525" style="enable-background:new 0 0 1835 525;" xml:space="preserve">
<style type="text/css">
	.st0{fill:none;}
	.st1{fill:#277FC3;}
</style>
<g id="Layer_1">
</g>
<g id="Layer_2">
	<path d="M1000.73,202.78h-86.43v-95.95h86.43V202.78z M1000.73,381h-86.43v-95.95h86.43V381z"/>
	<path d="M1204,508.23h-69.6c-13.84-16.44-26.37-33.37-37.6-50.78c-11.23-17.42-20.92-36.13-29.05-56.15
		c-7.65-18.71-13.63-39.47-17.94-62.26c-4.31-22.79-6.47-46.47-6.47-71.05c0-26.86,2.24-51.19,6.71-73
		c4.47-21.81,10.29-41.75,17.46-59.81c7.81-19.69,17.37-38.29,28.69-55.79c11.31-17.49,24.05-34.71,38.21-51.64h69.6l148.5-5.09
		c-13.18,11.88-174.25,37.52-186.22,52.57c-11.96,15.06-23.07,32.68-33.33,52.86c-9.77,19.37-17.7,40.86-23.8,64.45
		c-6.1,23.6-9.16,48.75-9.16,75.44c0,27.83,2.97,53.06,8.91,75.68c5.94,22.62,13.95,44.03,24.05,64.21
		c9.77,19.2,20.79,36.66,33.08,52.37c12.29,15.71,173.44,36.42,186.46,47.97H1204z"/>
	<path class="st0" d="M550.5,191.38c-7.9-9.44-19.98-14.16-36.25-14.16c-16.6,0-29.58,4.97-38.94,14.89
		c-9.36,9.93-14.53,23.44-15.5,40.53h10.65l88.99-24.23C557.36,201.69,554.38,196.01,550.5,191.38z"/>
	<path class="st0" d="M559.45,208.4l-88.99,24.23h92.63C562.83,223.44,561.62,215.36,559.45,208.4z"/>
	<path class="st0" d="M113.62,336.88c20.51,0,37.8-0.37,51.88-1.1c14.08-0.73,27.47-5.08,40.16-13.06
		c10.49-6.61,19.21-14.99,26.19-25.11l-119.94,32.66v6.61H113.62z"/>
	<path class="st0" d="M239.84,283.66c7.81-16.6,11.72-36.87,11.72-60.79s-4.11-44.39-12.33-61.4
		c-8.22-17.01-20.87-30.31-37.96-39.92c-12.37-6.84-25.35-10.58-38.94-11.23c-13.59-0.65-29.83-0.98-48.71-0.98h-1.71v220.93
		l119.94-32.66C234.83,293.28,237.5,288.64,239.84,283.66z"/>
	<path d="M205.66,322.72c-12.7,7.98-26.08,12.33-40.16,13.06c-14.08,0.73-31.37,1.1-51.88,1.1h-1.71v-6.61L20.6,355.14V405h113.77
		c25.06,0,48.71-1.75,70.92-5.25c22.22-3.5,42.76-11.35,61.65-23.56c22.62-14.32,41.34-34.87,56.15-61.65
		c8.01-14.48,13.83-30,17.51-46.55l-108.76,29.62C224.87,307.74,216.14,316.11,205.66,322.72z"/>
	<path class="st1" d="M324.55,132.93c-13.84-25.96-32.71-46.59-56.64-61.89c-19.53-12.53-40.45-20.42-62.74-23.68
		c-22.3-3.25-46.23-4.88-71.78-4.88H20.6v313.66l91.31-24.87V110.35h1.71c18.88,0,35.11,0.33,48.71,0.98
		c13.59,0.65,26.57,4.39,38.94,11.23c17.09,9.61,29.74,22.91,37.96,39.92c8.22,17.01,12.33,37.48,12.33,61.4
		s-3.91,44.19-11.72,60.79c-2.34,4.97-5.01,9.62-7.99,13.95L340.6,269c3.12-14.05,4.71-28.85,4.71-44.39
		C345.3,189.45,338.38,158.89,324.55,132.93z"/>
	<path d="M563.08,232.64h-92.63l-95.83,26.1c-0.17,3.53-0.27,7.12-0.27,10.77c0,45.74,13.79,80.97,41.38,105.71
		c27.59,24.74,67.26,37.11,119.02,37.11c14.16,0,26.16-0.69,36.01-2.08c9.85-1.38,19.41-3.3,28.69-5.74
		c10.09-2.44,18.02-4.84,23.8-7.2c5.78-2.36,12.17-4.92,19.17-7.69v-70.56h-9.03c-3.75,2.77-8.59,5.94-14.53,9.52
		c-5.94,3.58-12.41,6.92-19.41,10.01c-7.98,3.58-16.77,6.47-26.37,8.67c-9.61,2.2-19.37,3.3-29.3,3.3c-11.56,0-22.22-1.1-31.98-3.3
		c-9.77-2.2-18.31-5.82-25.63-10.86c-7.49-5.04-13.51-11.84-18.07-20.39c-4.56-8.54-7.24-19.17-8.06-31.86h187.26v-30.76
		c0-25.49-3.88-47.4-11.61-65.75l-76.25,20.76C561.62,215.36,562.83,223.44,563.08,232.64z"/>
	<path class="st1" d="M520.84,123.29c-46.23,0-82.2,13.35-107.91,40.04c-23.62,24.52-36.38,56.66-38.31,96.41l95.83-26.1h-10.65
		c0.98-17.09,6.14-30.6,15.5-40.53c9.36-9.93,22.34-14.89,38.94-14.89c16.27,0,28.36,4.72,36.25,14.16
		c3.87,4.63,6.85,10.31,8.94,17.02l76.25-20.76c-5.06-12-11.76-22.47-20.13-31.42C594.41,134.6,562.83,123.29,520.84,123.29z"/>
	<polygon points="663.66,180.02 663.66,190.4 697.84,190.4 697.84,405 783.29,405 783.29,190.4 848.23,190.4 848.23,130.83 
		844.31,130.83 	"/>
	<path class="st1" d="M780.36,131.83v-2.2c0-17.41,3.13-29.3,9.4-35.64c6.26-6.35,18.02-9.52,35.28-9.52
		c6.18,0,12.73,0.77,19.65,2.32c6.92,1.55,12,2.81,15.26,3.78h6.59V28.56c-7.81-1.46-17.09-2.64-27.83-3.54
		c-10.74-0.89-22.3-1.34-34.67-1.34c-35.64,0-62.26,8.38-79.83,25.15c-17.58,16.77-26.37,41.91-26.37,75.44v7.57h-34.18v49.19
		l180.64-49.19H780.36z"/>
	<path class="st0" d="M1717.25,211.64c-2.93-6.18-7.16-10.62-12.7-13.31c-5.54-2.69-12.94-4.03-22.22-4.03
		c-7,0-14.08,1.3-21.24,3.91c-7.16,2.61-14.81,6.76-22.95,12.45v59.21l84.17-33.06c-0.02-0.29-0.04-0.59-0.06-0.88
		C1721.36,224.95,1719.69,216.85,1717.25,211.64z"/>
	<path class="st0" d="M1404.51,201.88c-5.05-6.84-10.74-11.6-17.09-14.28c-6.35-2.69-13.59-4.03-21.73-4.03
		c-7.65,0-14.57,1.18-20.75,3.54c-6.19,2.36-11.88,6.88-17.09,13.55c-4.88,6.35-8.79,15.06-11.72,26.12
		c-2.93,11.07-4.39,24.99-4.39,41.75c0,16.77,1.38,30.32,4.15,40.65c2.77,10.34,6.35,18.6,10.74,24.78
		c4.55,6.35,10.25,10.99,17.09,13.92c6.84,2.93,14.4,4.39,22.71,4.39c6.84,0,13.79-1.46,20.87-4.39
		c7.08-2.93,12.73-7.32,16.97-13.18c5.04-7,8.87-15.42,11.47-25.27c2.6-9.85,3.91-23.48,3.91-40.89c0-16.27-1.34-29.82-4.03-40.65
		C1412.93,217.05,1409.22,208.39,1404.51,201.88z"/>
	<path d="M1470.18,161.23c-24.74-25.96-59.57-38.94-104.49-38.94c-44.76,0-79.55,12.9-104.37,38.7
		c-24.82,25.8-37.23,61.49-37.23,107.06c0,45.09,12.41,80.61,37.23,106.57c11.34,11.87,24.77,21.01,40.28,27.45l197.8-77.69
		c5.26-16.74,7.89-35.51,7.89-56.33C1507.29,222.79,1494.92,187.19,1470.18,161.23z M1415.74,309.42
		c-2.61,9.85-6.43,18.27-11.47,25.27c-4.23,5.86-9.89,10.25-16.97,13.18c-7.08,2.93-14.04,4.39-20.87,4.39
		c-8.3,0-15.87-1.46-22.71-4.39c-6.84-2.93-12.54-7.57-17.09-13.92c-4.39-6.18-7.98-14.44-10.74-24.78
		c-2.77-10.33-4.15-23.88-4.15-40.65c0-16.76,1.46-30.68,4.39-41.75c2.93-11.07,6.84-19.78,11.72-26.12
		c5.21-6.67,10.9-11.19,17.09-13.55c6.18-2.36,13.1-3.54,20.75-3.54c8.14,0,15.38,1.34,21.73,4.03c6.35,2.69,12.04,7.45,17.09,14.28
		c4.72,6.51,8.42,15.18,11.11,26c2.69,10.83,4.03,24.38,4.03,40.65C1419.64,285.94,1418.34,299.57,1415.74,309.42z"/>
	<path class="st1" d="M1365.69,412.54c45.08,0,79.96-12.98,104.61-38.94c13.27-13.97,22.97-30.72,29.1-50.24l-197.8,77.69
		C1320.02,408.71,1341.38,412.54,1365.69,412.54z"/>
	<polygon class="st1" points="1552.7,404 1638.15,404 1638.15,268.87 1552.7,302.43 	"/>
	<path class="st1" d="M1722.32,235.81c0.85,10.7,1.28,21.43,1.28,32.2V404h85.94V225.53c0-8.3-0.46-16.11-1.37-23.44L1722.32,235.81
		z"/>
	<path d="M1787.32,149.75c-14.81-17.66-36.22-26.49-64.21-26.49c-16.11,0-30.8,3.34-44.07,10.01c-13.27,6.68-26.9,15.95-40.89,27.83
		v-30.27h-85.45v172.6l85.45-33.56v-59.21c8.14-5.7,15.79-9.85,22.95-12.45c7.16-2.6,14.24-3.91,21.24-3.91
		c9.28,0,16.68,1.34,22.22,4.03c5.53,2.69,9.77,7.12,12.7,13.31c2.44,5.21,4.11,13.31,5,24.29c0.02,0.29,0.04,0.59,0.06,0.88
		l85.85-33.72C1805.41,180.82,1798.46,163.04,1787.32,149.75z"/>
	<rect x="18.6" y="454.48" class="st1" width="1046.4" height="19.3"/>
	<rect x="1390" y="24.68" class="st1" width="419.54" height="18.8"/>
</g>
</svg>
