<?xml version="1.0" encoding="utf-8"?>
<!-- Generator: Adobe Illustrator 27.1.1, SVG Export Plug-In . SVG Version: 6.00 Build 0)  -->
<svg version="1.1" id="레이어_2" xmlns="http://www.w3.org/2000/svg" xmlns:xlink="http://www.w3.org/1999/xlink" x="0px"
	 y="0px" viewBox="0 0 1141 233" style="enable-background:new 0 0 1141 233;" xml:space="preserve">
<style type="text/css">
	.st0{fill:#231815;}
	.st1{fill:#3FA9F5;}
</style>
<path class="st0" d="M26.94,23.01h103.81c5.01,0,9.83,1.97,13.42,5.46c10.16,9.88,19.28,18.95,27.35,27.21
	c3.51,3.6,5.46,8.4,5.46,13.42v98.94c0,5.03-1.98,9.86-5.5,13.46c-9.93,10.17-19.04,19.28-27.32,27.35
	c-3.59,3.5-8.39,5.45-13.41,5.45H28.01c-0.54,0-1.3-0.8-2.28-2.41V24.09C25.82,23.37,26.22,23.01,26.94,23.01z M82.13,99.17v38.85
	c0,10.62,8.61,19.22,19.22,19.22h0c10.62,0,19.22-8.61,19.22-19.22V99.17c0-10.62-8.61-19.22-19.22-19.22h0
	C90.74,79.95,82.13,88.56,82.13,99.17z"/>
<path class="st0" d="M186.35,23.01h133.83c0.71,0.09,1.07,0.45,1.07,1.07v54.12c0,0.8-0.36,1.21-1.07,1.21h-78.5v10.45h43.54
	c0.8,0.09,1.21,0.49,1.21,1.21v53.99c0,0.8-0.4,1.21-1.21,1.21h-43.54v9.91h78.5c0.71,0.09,1.07,0.45,1.07,1.07v54.66
	c0,0.8-0.36,1.21-1.07,1.21H186.35c-0.72,0-1.07-0.4-1.07-1.21V24.09C185.37,23.37,185.73,23.01,186.35,23.01z"/>
<path class="st0" d="M335.86,23.01h133.7c0.8,0.09,1.21,0.45,1.21,1.07v54.12c0,0.8-0.4,1.21-1.21,1.21h-78.5v10.45h43.67
	c0.71,0.09,1.07,0.49,1.07,1.21v53.99c0,0.8-0.36,1.21-1.07,1.21h-43.67v65.64c0,0.8-0.36,1.21-1.07,1.21h-54.12
	c-0.8,0-1.21-0.4-1.21-1.21V24.09C334.83,23.37,335.23,23.01,335.86,23.01z"/>
<path class="st1" d="M485.36,57.38h54.52c0.8,0.18,1.21,0.58,1.21,1.21V98.5c0,0.8-0.4,1.21-1.21,1.21h-54.52
	c-0.8,0-1.21-0.4-1.21-1.21V58.58C484.24,57.78,484.64,57.38,485.36,57.38z M485.36,135.74h54.52c0.8,0.18,1.21,0.58,1.21,1.21
	v39.92c0,0.8-0.4,1.21-1.21,1.21h-54.52c-0.8,0-1.21-0.4-1.21-1.21v-39.92C484.24,136.15,484.64,135.74,485.36,135.74z"/>
<path class="st1" d="M592.4,22.34h99.4c0.8,0.18,1.21,0.58,1.21,1.21l-22.14,28.74c0,0.8,21.74,27.12,20.93,27.12h-80.78v77.3h80.78
	c0.8,0.09-21.04,22.74-21.04,23.46L693,211.9c0,0.8-0.4,1.21-1.21,1.21h-99.4c-14.02-13.48-26.66-26.08-37.91-37.78V60.12
	C568.06,46.19,580.7,33.6,592.4,22.34z"/>
<path class="st0" d="M744.71,22.34h71c14.91,14.47,27.68,27.29,38.31,38.45v114c-14.38,14.83-27.15,27.6-38.31,38.31h-71
	c-14.83-14.38-27.6-27.15-38.31-38.31v-114C720.78,45.88,733.55,33.06,744.71,22.34z M763.33,79.41v77.3h33.76V96.1
	c0-9.22-7.47-16.69-16.69-16.69H763.33z"/>
<path class="st0" d="M868.63,23.01h54.66c1.34,1.07,13.93,24.34,37.78,69.8h0.54V24.09c0.09-0.71,0.49-1.07,1.21-1.07h53.99
	c0.8,0.09,1.21,0.45,1.21,1.07V211.9c0,0.8-0.4,1.21-1.21,1.21h-54.66c-5.45-8.57-17.82-31.62-37.11-69.13h-0.67v67.92
	c0,0.8-0.36,1.21-1.07,1.21h-54.66c-0.8,0-1.21-0.4-1.21-1.21V24.09C867.51,23.37,867.91,23.01,868.63,23.01z"/>
<text transform="matrix(1 0 0 1 -238.0249 -278.6416)" style="font-family:'AdobeMyungjoStd-Medium-KSCpc-EUC-H'; font-size:12px;"> </text>
<path class="st1" d="M1041.42,133.17h68.53c1.01,0.23,1.52,0.73,1.52,1.52v76.79c0,1.01-0.51,1.52-1.52,1.52h-25.09
	c-1.01,0-1.52-0.51-1.52-1.52v-25.09h-41.93c-1.01,0-1.52-0.51-1.52-1.52v-50.18C1040.02,133.68,1040.52,133.17,1041.42,133.17z
	 M1041.6,23h68.53c1.01,0.23,1.52,0.73,1.52,1.52V74.7c0,1.01-0.51,1.52-1.52,1.52h-68.53c-1.01,0-1.52-0.51-1.52-1.52V24.52
	C1040.2,23.51,1040.7,23,1041.6,23z"/>
</svg>
