<?xml version="1.0" encoding="utf-8"?>
<!-- Generator: Adobe Illustrator 27.1.1, SVG Export Plug-In . SVG Version: 6.00 Build 0)  -->
<svg version="1.1" id="레이어_1" xmlns="http://www.w3.org/2000/svg" xmlns:xlink="http://www.w3.org/1999/xlink" x="0px"
	 y="0px" viewBox="0 0 650 438" style="enable-background:new 0 0 650 438;" xml:space="preserve">
<style type="text/css">
	.st0{fill:#FFFFFF;}
	.st1{fill:#3FA9F5;}
</style>
<path class="st0" d="M12.47,9.42h103.81c5.01,0,9.83,1.97,13.42,5.46c10.16,9.88,19.28,18.95,27.35,27.21
	c3.51,3.6,5.46,8.4,5.46,13.42v98.94c0,5.03-1.98,9.86-5.5,13.46c-9.93,10.17-19.04,19.28-27.32,27.35
	c-3.59,3.5-8.39,5.45-13.41,5.45H13.54c-0.54,0-1.3-0.8-2.28-2.41V10.49C11.35,9.78,11.75,9.42,12.47,9.42z M67.66,85.58v38.85
	c0,10.62,8.61,19.22,19.22,19.22h0c10.62,0,19.22-8.61,19.22-19.22V85.58c0-10.62-8.61-19.22-19.22-19.22h0
	C76.27,66.36,67.66,74.96,67.66,85.58z"/>
<path class="st0" d="M171.88,9.42h133.83c0.71,0.09,1.07,0.45,1.07,1.07v54.12c0,0.8-0.36,1.21-1.07,1.21h-78.5v10.45h43.54
	c0.8,0.09,1.21,0.49,1.21,1.21v53.99c0,0.8-0.4,1.21-1.21,1.21h-43.54v9.91h78.5c0.71,0.09,1.07,0.45,1.07,1.07v54.66
	c0,0.8-0.36,1.21-1.07,1.21H171.88c-0.72,0-1.07-0.4-1.07-1.21V10.49C170.9,9.78,171.26,9.42,171.88,9.42z"/>
<path class="st0" d="M321.39,9.42h133.7c0.8,0.09,1.21,0.45,1.21,1.07v54.12c0,0.8-0.4,1.21-1.21,1.21h-78.5v10.45h43.67
	c0.71,0.09,1.07,0.49,1.07,1.21v53.99c0,0.8-0.36,1.21-1.07,1.21h-43.67v65.64c0,0.8-0.36,1.21-1.07,1.21h-54.12
	c-0.8,0-1.21-0.4-1.21-1.21V10.49C320.36,9.78,320.76,9.42,321.39,9.42z"/>
<path class="st1" d="M12.89,259.78h54.52c0.8,0.18,1.21,0.58,1.21,1.21v39.92c0,0.8-0.4,1.21-1.21,1.21H12.89
	c-0.8,0-1.21-0.4-1.21-1.21v-39.92C11.77,260.19,12.17,259.78,12.89,259.78z M12.89,338.15h54.52c0.8,0.18,1.21,0.58,1.21,1.21
	v39.92c0,0.8-0.4,1.21-1.21,1.21H12.89c-0.8,0-1.21-0.4-1.21-1.21v-39.92C11.77,338.56,12.17,338.15,12.89,338.15z"/>
<path class="st1" d="M119.93,224.75h99.4c0.8,0.18,1.21,0.58,1.21,1.21l-22.14,28.74c0,0.8,21.74,27.12,20.93,27.12h-80.78v77.3
	h80.78c0.8,0.09-21.04,22.74-21.04,23.46l22.25,31.74c0,0.8-0.4,1.21-1.21,1.21h-99.4c-14.02-13.48-26.66-26.08-37.91-37.78V262.53
	C95.59,248.6,108.22,236.01,119.93,224.75z"/>
<path class="st0" d="M272.24,224.75h71c14.91,14.47,27.68,27.29,38.31,38.45v114c-14.38,14.83-27.15,27.6-38.31,38.31h-71
	c-14.83-14.38-27.6-27.15-38.31-38.31v-114C248.31,248.29,261.08,235.47,272.24,224.75z M290.86,281.82v77.3h33.76v-60.61
	c0-9.22-7.47-16.69-16.69-16.69H290.86z"/>
<path class="st0" d="M396.16,225.42h54.66c1.34,1.07,13.93,24.34,37.78,69.8h0.54v-68.72c0.09-0.71,0.49-1.07,1.21-1.07h53.99
	c0.8,0.09,1.21,0.45,1.21,1.07v187.82c0,0.8-0.4,1.21-1.21,1.21h-54.66c-5.45-8.57-17.82-31.62-37.11-69.13h-0.67v67.92
	c0,0.8-0.36,1.21-1.07,1.21h-54.66c-0.8,0-1.21-0.4-1.21-1.21V226.49C395.04,225.78,395.44,225.42,396.16,225.42z"/>
<path class="st1" d="M568.95,335.58h68.53c1.01,0.23,1.52,0.73,1.52,1.52v76.79c0,1.01-0.51,1.52-1.52,1.52H612.4
	c-1.01,0-1.52-0.51-1.52-1.52v-25.09h-41.93c-1.01,0-1.52-0.51-1.52-1.52V337.1C567.55,336.09,568.05,335.58,568.95,335.58z
	 M569.13,225.41h68.53c1.01,0.23,1.52,0.73,1.52,1.52v50.18c0,1.01-0.51,1.52-1.52,1.52h-68.53c-1.01,0-1.52-0.51-1.52-1.52v-50.18
	C567.72,225.91,568.23,225.41,569.13,225.41z"/>
</svg>
